# xmcd
#
# Track frame offsets:
#	150
#	22271
#	36041
#	55885
#	71047
#	89791
#	103445
#	117633
#	130951
#	148556
#	160635
#	171702
#	181680
#	196281
#	209310
#
# Disc length: 3028 seconds
# Revision: 0
# Processed by: cddbd v1.5.2PL0 Copyright (c) Steve Scherf et al.
# Submitted via: dBpowerAMP V12.0
#
DISCID=ea0bd20f
DTITLE=Jesse Dayton - Tall Walkin' Texas Trash Ltd Ed
DYEAR=1900
DGENRE=
TTITLE0=Nashville Casualty and Life
TTITLE1=One of Them Days
TTITLE2=Highway Cafe
TTITLE3=Sold American
TTITLE4=Harris County Blues
TTITLE5=Lo Fi Lover
TTITLE6=Beaumonster Boobie
TTITLE7=The River Done Rose
TTITLE8=Killer on the Lamb
TTITLE9=Feelings and Business
TTITLE10=Dick Soup
TTITLE11=Something to Brag About (w/Brennen Leigh)
TTITLE12=Just What I Needed
TTITLE13=The Way We Are
TTITLE14=Tall Walikn' Texas Trash
EXTD=
EXTT0=
EXTT1=
EXTT2=
EXTT3=
EXTT4=
EXTT5=
EXTT6=
EXTT7=
EXTT8=
EXTT9=
EXTT10=
EXTT11=
EXTT12=
EXTT13=
EXTT14=
PLAYORDER=
